<svg id="visual" viewBox="0 0 60 60" width="60" height="60" xmlns="http://www.w3.org/2000/svg" xmlns:xlink="http://www.w3.org/1999/xlink" version="1.1"><path d="M0 38L1.5 38.2C3 38.3 6 38.7 8.8 38C11.7 37.3 14.3 35.7 17.2 35.2C20 34.7 23 35.3 25.8 35.8C28.7 36.3 31.3 36.7 34.2 37.2C37 37.7 40 38.3 42.8 39C45.7 39.7 48.3 40.3 51.2 39.8C54 39.3 57 37.7 58.5 36.8L60 36L60 61L58.5 61C57 61 54 61 51.2 61C48.3 61 45.7 61 42.8 61C40 61 37 61 34.2 61C31.3 61 28.7 61 25.8 61C23 61 20 61 17.2 61C14.3 61 11.7 61 8.8 61C6 61 3 61 1.5 61L0 61Z" fill="#0066ff"></path><path d="M0 45L1.5 44.3C3 43.7 6 42.3 8.8 41.7C11.7 41 14.3 41 17.2 41.7C20 42.3 23 43.7 25.8 44.5C28.7 45.3 31.3 45.7 34.2 45C37 44.3 40 42.7 42.8 41.7C45.7 40.7 48.3 40.3 51.2 40.2C54 40 57 40 58.5 40L60 40L60 61L58.5 61C57 61 54 61 51.2 61C48.3 61 45.7 61 42.8 61C40 61 37 61 34.2 61C31.3 61 28.7 61 25.8 61C23 61 20 61 17.2 61C14.3 61 11.7 61 8.8 61C6 61 3 61 1.5 61L0 61Z" fill="#007aff"></path><path d="M0 46L1.5 45.7C3 45.3 6 44.7 8.8 45C11.7 45.3 14.3 46.7 17.2 46.7C20 46.7 23 45.3 25.8 44.7C28.7 44 31.3 44 34.2 44.2C37 44.3 40 44.7 42.8 44.8C45.7 45 48.3 45 51.2 45.2C54 45.3 57 45.7 58.5 45.8L60 46L60 61L58.5 61C57 61 54 61 51.2 61C48.3 61 45.7 61 42.8 61C40 61 37 61 34.2 61C31.3 61 28.7 61 25.8 61C23 61 20 61 17.2 61C14.3 61 11.7 61 8.8 61C6 61 3 61 1.5 61L0 61Z" fill="#008cff"></path><path d="M0 50L1.5 49.8C3 49.7 6 49.3 8.8 49.3C11.7 49.3 14.3 49.7 17.2 50.3C20 51 23 52 25.8 51.7C28.7 51.3 31.3 49.7 34.2 48.8C37 48 40 48 42.8 48.7C45.7 49.3 48.3 50.7 51.2 51.2C54 51.7 57 51.3 58.5 51.2L60 51L60 61L58.5 61C57 61 54 61 51.2 61C48.3 61 45.7 61 42.8 61C40 61 37 61 34.2 61C31.3 61 28.7 61 25.8 61C23 61 20 61 17.2 61C14.3 61 11.7 61 8.8 61C6 61 3 61 1.5 61L0 61Z" fill="#2b9dfc"></path><path d="M0 55L1.5 54.8C3 54.7 6 54.3 8.8 54.3C11.7 54.3 14.3 54.7 17.2 54.8C20 55 23 55 25.8 54.8C28.7 54.7 31.3 54.3 34.2 54C37 53.7 40 53.3 42.8 53.5C45.7 53.7 48.3 54.3 51.2 54.5C54 54.7 57 54.3 58.5 54.2L60 54L60 61L58.5 61C57 61 54 61 51.2 61C48.3 61 45.7 61 42.8 61C40 61 37 61 34.2 61C31.3 61 28.7 61 25.8 61C23 61 20 61 17.2 61C14.3 61 11.7 61 8.8 61C6 61 3 61 1.5 61L0 61Z" fill="#4facf7"></path></svg>